<svg width="16" height="16" viewBox="0 0 16 16" fill="none" xmlns="http://www.w3.org/2000/svg">
<path d="M5.98362 15.8169C6.20638 15.5941 15.5053 6.29524 15.817 5.98352C16.0611 5.73943 16.0611 5.34371 15.817 5.09965L10.9003 0.182988C10.6564 -0.060918 10.2605 -0.0610742 10.0164 0.182988L0.183062 10.0163C0.0643125 10.1351 0 10.2961 0 10.4583V15.3749C0 15.7201 0.279813 15.9999 0.625 15.9999H5.54166C5.69666 15.9999 5.90884 15.8916 5.98362 15.8169ZM3.96722 12.9166L10.4583 6.42549L12.0328 7.99996L5.54166 14.4911L3.96722 12.9166ZM1.50888 10.4583L8 3.96714L9.57444 5.54161L3.08334 12.0327L1.50888 10.4583ZM10.4583 1.5088L14.4911 5.54158L12.9167 7.11602L8.88391 3.08327L10.4583 1.5088ZM1.25 11.9671C1.37369 12.0908 3.91362 14.6308 4.03278 14.7499H1.25V11.9671ZM16 15.3749C16 15.7201 15.7202 15.9999 15.375 15.9999H10.4583C10.1132 15.9999 9.83334 15.7201 9.83334 15.3749C9.83334 15.0297 10.1132 14.7499 10.4583 14.7499H15.375C15.7202 14.7499 16 15.0297 16 15.3749ZM16 12.9166C16 13.2618 15.7202 13.5416 15.375 13.5416H12.9167C12.5715 13.5416 12.2917 13.2618 12.2917 12.9166C12.2917 12.5714 12.5715 12.2916 12.9167 12.2916H15.375C15.7202 12.2916 16 12.5714 16 12.9166Z" fill="#2F1238"/>
</svg>
