<svg width="32" height="32" viewBox="0 0 32 32" fill="none" xmlns="http://www.w3.org/2000/svg">
<path opacity="0.5" d="M17.6465 24.5502C24.0646 24.5502 29.2676 19.3557 29.2676 12.948C29.2676 6.54021 24.0646 1.3457 17.6465 1.3457C11.2283 1.3457 6.02539 6.54021 6.02539 12.948C6.02539 19.3557 11.2283 24.5502 17.6465 24.5502Z" fill="#FFEFD2"/>
<path d="M17.8863 0.0528172C17.9778 -0.069505 18.1687 0.0405189 18.1083 0.180837L17.6712 1.19748C17.6476 1.25222 17.6648 1.31594 17.7125 1.35161L18.6003 2.01383C18.7228 2.10522 18.6126 2.29579 18.472 2.23556L17.4538 1.79912C17.3989 1.77562 17.3351 1.79269 17.2993 1.84042L16.6361 2.72671C16.5445 2.84903 16.3536 2.73901 16.414 2.59869L16.8511 1.58205C16.8747 1.5273 16.8576 1.46358 16.8098 1.42792L15.922 0.765694C15.7995 0.674303 15.9097 0.483734 16.0503 0.543971L17.0686 0.980405C17.1234 1.00391 17.1872 0.986834 17.2229 0.93911L17.8863 0.0528172Z" fill="#F8D0B9"/>
<path d="M16.1643 29.2735C16.2558 29.1512 16.4468 29.2612 16.3864 29.4015L15.9493 30.4182C15.9257 30.4729 15.9428 30.5366 15.9906 30.5723L16.8784 31.2345C17.0009 31.3259 16.8907 31.5164 16.7501 31.4562L15.7319 31.0198C15.677 30.9963 15.6131 31.0133 15.5774 31.0611L14.9142 31.9474C14.8226 32.0697 14.6317 31.9596 14.6921 31.8194L15.1292 30.8027C15.1528 30.7479 15.1356 30.6843 15.0879 30.6486L14.2001 29.9864C14.0776 29.895 14.1878 29.7044 14.3284 29.7647L15.3466 30.2011C15.4015 30.2246 15.4653 30.2075 15.501 30.1597L16.1643 29.2735Z" fill="#F8D0B9"/>
<path fill-rule="evenodd" clip-rule="evenodd" d="M28.557 11.6592C30.4587 11.6592 32.0003 13.1983 32.0003 15.0969V23.8192C32.0003 25.3567 30.9893 26.6585 29.5948 27.098L30.5432 29.3072C30.9021 30.1435 29.8836 30.8904 29.1917 30.2983L25.6378 27.2569H17.2167C15.315 27.2569 13.7734 25.7179 13.7734 23.8192V15.0969C13.7734 13.1983 15.315 11.6592 17.2167 11.6592H28.557Z" fill="#F4B18B"/>
<path d="M18.7229 23.648L22.4829 15.2256H24.4112L28.1833 23.648H26.1345L23.0494 16.2122H23.8207L20.7234 23.648H18.7229ZM20.6029 21.8432L21.1211 20.3632H25.4597L25.9899 21.8432H20.6029Z" fill="#FDEFE8"/>
<path fill-rule="evenodd" clip-rule="evenodd" d="M5.16496 4.7832C3.26329 4.7832 1.72168 6.32232 1.72168 8.22091V16.9432C1.72168 18.4807 2.73267 19.7825 4.12715 20.222L3.17884 22.4312C2.81985 23.2675 3.83834 24.0144 4.53028 23.4223L8.08427 20.3809H16.5053C18.407 20.3809 19.9486 18.8419 19.9486 16.9432V8.22091C19.9486 6.32232 18.407 4.7832 16.5053 4.7832H5.16496Z" fill="#FFD079"/>
<path d="M10.2506 16.1003C9.59179 16.1003 8.97717 15.992 8.4067 15.7754C7.84433 15.5589 7.35418 15.254 6.93642 14.861C6.52667 14.468 6.2053 14.0067 5.9723 13.4773C5.74734 12.9479 5.63486 12.3704 5.63486 11.7447C5.63486 11.1191 5.74734 10.5415 5.9723 10.0121C6.2053 9.48272 6.53069 9.02147 6.94847 8.62845C7.36623 8.23544 7.85638 7.9306 8.41875 7.71402C8.98113 7.49745 9.59179 7.38916 10.2506 7.38916C10.9175 7.38916 11.528 7.49745 12.0824 7.71402C12.6448 7.9306 13.1309 8.23544 13.5406 8.62845C13.9584 9.01348 14.2838 9.47069 14.5168 10.0001C14.7498 10.5295 14.8663 11.1111 14.8663 11.7447C14.8663 12.3704 14.7498 12.952 14.5168 13.4894C14.2838 14.0188 13.9584 14.48 13.5406 14.873C13.1309 15.2581 12.6448 15.5589 12.0824 15.7754C11.528 15.992 10.9175 16.1003 10.2506 16.1003ZM13.0104 17.8931C12.6809 17.8931 12.3676 17.857 12.0704 17.7848C11.7811 17.7126 11.4919 17.5963 11.2026 17.4359C10.9214 17.2754 10.6242 17.0588 10.3108 16.7861C10.0055 16.5134 9.67211 16.1765 9.31056 15.7754L11.3593 15.2581C11.5762 15.5548 11.7771 15.7915 11.9619 15.968C12.1467 16.1444 12.3234 16.2688 12.4922 16.3409C12.6689 16.4131 12.8537 16.4492 13.0465 16.4492C13.5607 16.4492 14.0187 16.2407 14.4204 15.8236L15.2881 16.8583C14.7176 17.5482 13.9584 17.8931 13.0104 17.8931ZM10.2506 14.4399C10.6282 14.4399 10.9737 14.3757 11.287 14.2474C11.6084 14.1191 11.8896 13.9346 12.1306 13.6939C12.3716 13.4533 12.5565 13.1685 12.685 12.8396C12.8216 12.5027 12.8899 12.1378 12.8899 11.7447C12.8899 11.3436 12.8216 10.9787 12.685 10.6498C12.5565 10.3209 12.3716 10.0362 12.1306 9.79555C11.8896 9.55492 11.6084 9.3704 11.287 9.24208C10.9737 9.11377 10.6282 9.04957 10.2506 9.04957C9.87294 9.04957 9.52345 9.11377 9.2021 9.24208C8.88076 9.3704 8.59953 9.55492 8.3585 9.79555C8.12547 10.0362 7.94074 10.3209 7.80413 10.6498C7.67561 10.9787 7.6113 11.3436 7.6113 11.7447C7.6113 12.1378 7.67561 12.5027 7.80413 12.8396C7.94074 13.1685 8.12547 13.4533 8.3585 13.6939C8.59953 13.9346 8.88076 14.1191 9.2021 14.2474C9.52345 14.3757 9.87294 14.4399 10.2506 14.4399Z" fill="#FDEFE8"/>
<path d="M0.860821 23.6909C1.33624 23.6909 1.72164 23.3061 1.72164 22.8315C1.72164 22.3568 1.33624 21.972 0.860821 21.972C0.385403 21.972 0 22.3568 0 22.8315C0 23.3061 0.385403 23.6909 0.860821 23.6909Z" fill="#F8D0B9"/>
<path d="M30.9895 4.78331C31.4649 4.78331 31.8503 4.39853 31.8503 3.92388C31.8503 3.44923 31.4649 3.06445 30.9895 3.06445C30.5141 3.06445 30.1287 3.44923 30.1287 3.92388C30.1287 4.39853 30.5141 4.78331 30.9895 4.78331Z" fill="#F8D0B9"/>
</svg>
